<svg width="22" height="17" viewBox="0 0 22 17" fill="none" xmlns="http://www.w3.org/2000/svg">
<path d="M21.46 2C20.69 2.35 19.86 2.58 19 2.69C19.88 2.16 20.56 1.32 20.88 0.31C20.05 0.81 19.13 1.16 18.16 1.36C17.37 0.5 16.26 0 15 0C12.65 0 10.73 1.92 10.73 4.29C10.73 4.63 10.77 4.96 10.84 5.27C7.28 5.09 4.11 3.38 2 0.79C1.63 1.42 1.42 2.16 1.42 2.94C1.42 4.43 2.17 5.75 3.33 6.5C2.62 6.5 1.96 6.3 1.38 6C1.38 6 1.38 6 1.38 6.03C1.38 8.11 2.86 9.85 4.82 10.24C4.46 10.34 4.08 10.39 3.69 10.39C3.42 10.39 3.15 10.36 2.89 10.31C3.43 12 5 13.26 6.89 13.29C5.43 14.45 3.58 15.13 1.56 15.13C1.22 15.13 0.880001 15.11 0.540001 15.07C2.44 16.29 4.7 17 7.12 17C15 17 19.33 10.46 19.33 4.79C19.33 4.6 19.33 4.42 19.32 4.23C20.16 3.63 20.88 2.87 21.46 2Z" fill="#e9e0c9"/>
</svg>
