<svg width="32" height="32" fill="none" xmlns="http://www.w3.org/2000/svg"><path fill="#960026" d="M0 0h32v32H0z"/><g fill="#fff"><path d="M10.915.865h20.22V7.57h-9.66c.192-.247.35-.446.358-.446.01 0 .015-.015.008-.034-.012-.036.29-.431 1.275-1.666l.355-.443c.135-.17.246-.32.246-.333 0-.038-.314-.467-.345-.471a4.843 4.843 0 00-.427.13c-.222.073-.512.16-.646.194-2.446.621-5.492 2.401-8.576 5.007L10.915.865zM9.15 14.027a94.138 94.138 0 01-.673-2.228 128.852 128.852 0 00-1.22-3.984h-.204A239.17 239.17 0 015.935 11.8a91.558 91.558 0 01-1.22 3.907l-.56 1.723h2.252l.707-.867c.193-.236.368-.452.389-.48.021-.029.112-.141.202-.25.282-.34.92-1.124 1.034-1.269a.55.55 0 00.074-.113 5.23 5.23 0 01.337-.423zM6.974 17.43c.767-.91 2.017-2.373 2.035-2.373.006 0 .138-.148.346-.385.114.353.228.697.342 1.034l.56 1.723H6.974z"/><path d="M14.398 11.586l-.567-1.745c.223-.2.502-.44.77-.662 1.1-.907 2.217-1.621 3.176-2.033.245-.105.287-.125.308-.11.006.005.01.012.016.021.022.031-.017.081-.67.869l-.754.911a393.155 393.155 0 01-1.379 1.662c-.419.508-.705.853-.9 1.087zM7.769 24.38H2.515l-1.65 6.755h12.682l-.137-.564c-.23.1-.446.184-.626.243a3.28 3.28 0 00-.354.13c-.012.017-.495.111-.751.147a5.283 5.283 0 01-1.695-.053 2.096 2.096 0 00-.28-.047c-.026.001-.048-.011-.048-.028s-.078-.058-.173-.091a3.199 3.199 0 01-1.3-.9c-.613-.712-.877-1.589-.845-2.808.018-.72.092-1.312.258-2.07.041-.19.077-.361.08-.381a.47.47 0 01.017-.074c.015-.044.044-.144.076-.26z"/><path d="M13.338 30.277a3.727 3.727 0 01-.358.103c-.345.078-.745.079-.915.001-.386-.177-.654-.638-.772-1.331-.097-.571-.003-1.895.217-3.066.102-.54.271-1.25.377-1.605h.01l1.44 5.898zm5.412-5.297l-2.962-9.114c.063-.115.14-.252.232-.415.578-1.03 1.367-2.268 2.337-3.67.723-1.045 1.874-2.629 2.248-3.103v4.667h9.026v6.707h-9.026v2.355c-.356.505-1.484 2.07-1.856 2.573z"/><path d="M18.878 25.375l1.727 5.317v-7.735c-.199.269-.66.913-1.53 2.134a12.91 12.91 0 00-.197.284z"/></g></svg>